<?xml version="1.0" encoding="UTF-8"?>
<svg id="Layer_2" data-name="Layer 2" xmlns="http://www.w3.org/2000/svg" xmlns:xlink="http://www.w3.org/1999/xlink" viewBox="0 0 515.1 192.3">
  <defs>
    <style>
      .cls-1 {
        fill: #efefef;
      }

      .cls-2 {
        fill: url(#linear-gradient);
      }
    </style>
    <linearGradient id="linear-gradient" x1="502.07" y1="46.43" x2="120.98" y2="179.19" gradientUnits="userSpaceOnUse">
      <stop offset="0" stop-color="#360465"/>
      <stop offset="1" stop-color="#aa54e6"/>
    </linearGradient>
  </defs>
  <path class="cls-2" d="m457.2,58c-9.75-9.75-23.23-15.78-38.11-15.78h-38.51v23.67c0,1.36-1.33,2.33-2.63,1.9l-16.69-5.53c-1.16-.39-2.42-.39-3.59,0l-16.68,5.53c-1.29.43-2.63-.53-2.63-1.9v-23.67h-37.71c-29.83,0-54.6,23.89-54.69,53.72-.05,14.95,5.99,28.49,15.78,38.28,9.75,9.75,23.23,15.78,38.11,15.78h118.43c29.83,0,54.6-23.89,54.69-53.72.05-14.95-5.99-28.49-15.78-38.28Zm-153.62,53.22c-8.35,0-15.11-6.77-15.11-15.11s6.77-15.11,15.11-15.11,15.11,6.77,15.11,15.11-6.77,15.11-15.11,15.11Zm123.13-3.21c-9.26-3.97-21.08-4.7-26.1-4.83-1.52-.04-2.88-.89-3.58-2.24h0c-.82-1.58-.56-3.53.69-4.8,7.97-8.12,22.87-12.02,29.28-13.38,1.65-.35,3.25.75,3.51,2.41v.03c.25,1.55-.76,3.02-2.29,3.35-5.01,1.07-15.76,3.83-22.97,8.92,6.32.43,15.71,1.65,23.72,5.07,1.59.68,2.28,2.56,1.48,4.09v.02c-.7,1.31-2.38,1.94-3.74,1.36Z"/>
  <g>
    <g>
      <path class="cls-1" d="m68.34,83.98c0,3.88-.84,6.64-2.51,8.28-1.68,1.63-4.38,2.45-8.11,2.45s-6.25-.83-7.81-2.49c-1.57-1.66-2.32-4.17-2.27-7.52.03-.99.13-2.08.29-3.26.22-1.55-1.01-2.92-2.57-2.92h0c-1.28,0-2.38.93-2.56,2.2-.28,1.86-.43,3.63-.47,5.32-.03,4.86,1.19,8.56,3.68,11.1,2.49,2.54,6.39,3.81,11.71,3.81s9.23-1.45,12-4.34c2.76-2.89,4.14-7.08,4.14-12.57v-29.02c0-1.43-1.16-2.59-2.59-2.59h-.34c-1.43,0-2.59,1.16-2.59,2.59v28.96Z"/>
      <path class="cls-1" d="m123.31,64.74c.84,0,1.54-.28,2.1-.83.56-.56.85-1.24.85-2.07s-.28-1.56-.85-2.12c-.56-.56-1.27-.83-2.1-.83s-1.51.28-2.08.85-.85,1.27-.85,2.1.29,1.49.86,2.05,1.26.85,2.07.85Z"/>
      <path class="cls-1" d="m124,68.46c0,.86.28,1.56.85,2.12.56.56,1.27.83,2.1.83s1.54-.28,2.09-.83c.56-.56.83-1.26.83-2.12s-.28-1.52-.83-2.09c-.56-.57-1.25-.86-2.09-.86s-1.54.29-2.1.86c-.56.57-.85,1.27-.85,2.09Z"/>
      <path class="cls-1" d="m119.64,71.41c.86,0,1.56-.28,2.12-.83.56-.56.83-1.26.83-2.12s-.28-1.52-.85-2.09c-.56-.57-1.27-.86-2.1-.86s-1.54.29-2.1.86c-.56.57-.85,1.27-.85,2.09s.28,1.56.83,2.12c.56.56,1.26.83,2.12.83Z"/>
      <path class="cls-1" d="m152.61,71.41c.86,0,1.56-.28,2.12-.83.56-.56.83-1.26.83-2.12s-.28-1.52-.85-2.09c-.56-.57-1.27-.86-2.1-.86s-1.54.29-2.1.86c-.56.57-.85,1.27-.85,2.09s.28,1.56.83,2.12c.56.56,1.26.83,2.12.83Z"/>
      <path class="cls-1" d="m159.93,71.41c.84,0,1.54-.28,2.09-.83.56-.56.83-1.26.83-2.12s-.28-1.52-.83-2.09c-.56-.57-1.25-.86-2.09-.86s-1.54.29-2.1.86c-.56.57-.85,1.27-.85,2.09s.28,1.56.85,2.12c.56.56,1.27.83,2.1.83Z"/>
      <path class="cls-1" d="m182.18,70.51c-2.4,0-4.42.69-6.07,2.07-1.65,1.38-3.13,3.56-4.43,6.56l-.9,1.82c-.98,2.22-1.88,3.71-2.71,4.45-.83.74-2.08,1.12-3.75,1.12-1.46,0-2.56-.16-3.29-.49-.74-.32-1.27-.92-1.6-1.8-.33-.87-.5-2.17-.5-3.9v-3.03c0-1.43-1.16-2.59-2.59-2.59h-.18c-1.43,0-2.59,1.16-2.59,2.59v3.03c0,2.24-.4,3.83-1.21,4.77-.8.94-2.19,1.41-4.16,1.41h-5.62s0,0,0,0h-11.21c-1.47,0-2.58-.16-3.31-.49-.74-.32-1.27-.92-1.6-1.8-.33-.87-.5-2.17-.5-3.9v-3.03c0-1.43-1.16-2.59-2.59-2.59h-.18c-1.43,0-2.59,1.16-2.59,2.59v3.03c0,2.24-.4,3.83-1.21,4.77-.8.94-2.19,1.41-4.16,1.41h-5.62s0,0,0,0h-11.24s0,0,0,0h-5.59c-2.02,0-3.42-.42-4.2-1.27-.78-.85-1.17-2.37-1.17-4.56v-25.69c0-1.43-1.16-2.59-2.59-2.59h-.39c-1.43,0-2.59,1.16-2.59,2.59v26.49c0,3.85.72,6.67,2.17,8.46,1.45,1.79,3.77,2.68,6.97,2.68h22.94c4.53,0,7.14-1.86,7.83-5.57.73,3.71,3.5,5.56,8.29,5.57h0s5.62,0,5.62,0h11.24c4.53,0,7.14-1.86,7.83-5.57.73,3.71,3.5,5.56,8.29,5.57h0s0,0,.02,0c0,0,0,0,.01,0h0c2.01,0,3.65-.28,4.93-.82,1.28-.55,2.43-1.46,3.44-2.75,2.57,2.72,6.04,4.08,10.42,4.08,3.34,0,5.93-.93,7.79-2.8,1.86-1.86,2.78-4.47,2.78-7.8s-.97-6.35-2.91-8.62c-1.94-2.28-4.38-3.41-7.3-3.41Zm4.31,15.41c-.92.76-2.38,1.14-4.36,1.14-1.51,0-2.96-.26-4.38-.77-1.41-.51-2.61-1.24-3.61-2.18v-.05l.85-1.9c.89-2.05,1.88-3.5,2.98-4.35,1.09-.85,2.5-1.27,4.21-1.27s3,.55,4.08,1.66,1.62,2.49,1.62,4.14-.46,2.82-1.39,3.58Z"/>
      <rect class="cls-1" x="198.24" y="52.42" width="5.52" height="40.21" rx="2.59" ry="2.59"/>
    </g>
    <g>
      <path class="cls-1" d="m83.24,117.5v20.48c0,2.39-3.84,2.39-3.84,0v-13.59l-5.57,14.25c-.66,1.52-2.98,1.52-3.65,0l-5.57-14.25v13.66c0,2.32-3.71,2.32-3.71,0v-20.55c0-2.78,3.98-2.98,4.97-.46l6.3,16.18,6.1-16.11c.99-2.65,4.97-2.39,4.97.4Z"/>
      <path class="cls-1" d="m89.08,115.24h14.39c2.39,0,2.39,3.51,0,3.51h-4.91v19.09c0,2.52-3.85,2.59-3.85,0v-19.09h-5.63c-2.45,0-2.45-3.51,0-3.51Z"/>
      <path class="cls-1" d="m107.9,137.78v-20.48c0-1.13.73-1.92,1.86-1.92h10.94c2.45,0,2.45,3.58,0,3.58h-9.02v6.89h7.09c2.65,0,2.65,3.71,0,3.71h-7.09v6.63h9.02c2.45,0,2.45,3.51,0,3.51h-10.94c-1.13,0-1.86-.8-1.86-1.92Z"/>
      <path class="cls-1" d="m42.31,137.78v-20.48c0-1.13.73-1.92,1.86-1.92h10.94c2.45,0,2.45,3.58,0,3.58h-9.02v6.89h7.09c2.65,0,2.65,3.71,0,3.71h-7.09v6.63h9.02c2.45,0,2.45,3.51,0,3.51h-10.94c-1.13,0-1.86-.8-1.86-1.92Z"/>
      <path class="cls-1" d="m128.39,115.24h14.39c2.39,0,2.39,3.51,0,3.51h-4.91v19.09c0,2.52-3.85,2.59-3.85,0v-19.09h-5.63c-2.45,0-2.45-3.51,0-3.51Z"/>
      <path class="cls-1" d="m147.21,137.78v-20.42c0-2.59,3.78-2.65,3.78,0v9.28h10.01v-9.28c0-2.59,3.78-2.65,3.78,0v20.42c0,2.52-3.78,2.52-3.78,0v-7.62h-10.01v7.62c0,2.52-3.78,2.52-3.78,0Z"/>
      <path class="cls-1" d="m182.48,132.61h-8.09l-1.92,5.44c-.99,2.78-4.51,1.66-3.51-1.06l7.29-20.02c.86-2.39,3.71-2.39,4.57,0l7.23,20.02c.93,2.59-2.59,3.84-3.58,1.13l-1.99-5.5Zm-1.26-3.51l-2.72-7.76-2.78,7.76h5.5Z"/>
      <path class="cls-1" d="m192.16,117.23c0-2.78,3.84-2.78,3.84,0v16.9c0,.8.2,1.99,1.86,1.99h4.11c2.39,0,2.39,3.58,0,3.58h-4.11c-4.38,0-5.7-1.26-5.7-5.24v-17.24Z"/>
    </g>
  </g>
</svg>